<?xml version="1.0" encoding="utf-8"?>
<!-- Generator: Adobe Illustrator 21.0.0, SVG Export Plug-In . SVG Version: 6.00 Build 0) -->
<svg version="1.1" id="Layer_2" xmlns="http://www.w3.org/2000/svg" xmlns:xlink="http://www.w3.org/1999/xlink" x="0px" y="0px" viewBox="0 0 33.3 37.6" style="enable-background:new 0 0 33.3 37.6;" xml:space="preserve">
  <style type="text/css">
    .st0 {
      fill: #FDC305;
    }
    .st1 {
      fill: #F06351;
    }
  </style>
  <g>
    <path class="st0" d="M6.1,20.7l0.1-2.3c6.7-0.9,13.4-1.4,20.2-1.3c0,0.6,0,1.2-0.1,1.8c0,0,2.9-1.3,6-1.8
    c-2.4-6.3-8.5-10.8-15.6-10.8c-8.3,0-15.2,6.1-16.5,14.1C2.4,20.5,6.1,20.7,6.1,20.7z"/>
    <path class="st0" d="M27.2,24.2c-1.2,1.3-1.4,1.2-1.4,3.5c0,0.9,0,4.9,0,9.2c4.5-3,7.4-8.1,7.4-13.9c0-1.1-0.1-2.1-0.3-3.1
    C31.2,21,28.2,23.1,27.2,24.2z"/>
    <path class="st0" d="M6.4,25.7c0,0-3.8-1.4-5.2-1.8c-0.4-0.1-0.8-0.2-1.2-0.3c0.2,6,3.7,11.3,8.7,14L6.4,25.7z"/>
  </g>
  <path class="st1" d="M26.3,17.1c0.1-8.5-1.4-16.5-1.4-16.5S24.7-0.6,24,0.4c-0.7,1.1-1.2,3.9-1.2,3.9c-7.4-0.4-12.8,0.3-12.8,0.3
  C9.2,2,7.9,0.8,7.2,1C6.5,1.3,6.5,4.4,6.5,4.4L6.1,18.5C12.8,17.5,19.6,17.1,26.3,17.1z"/>
  <path d="M12.4,14c0-0.1,1,0.7,1.4,0.9c0.4,0.2,0.6,0.4,0.6,0.6c0,0.2-0.3,0.3-0.6,0.3s-0.9-0.1-1-0.3c0,0,0.6,0,0.9,0h0.3
  C14.1,15.6,12.7,14.5,12.4,14z"/>
  <path d="M19.9,14.1c0,0-1,1.3-1.1,1.3c0,0.1-0.2,0.3,0.2,0.3s1.1-0.2,1.2-0.3c0.1-0.1,0.1-0.2-0.1-0.2c-0.2,0-0.7,0-1,0.1L19.9,14.1
  C19.9,14.1,20,14,19.9,14.1z"/>
  <path d="M16.8,20.2c0,0,0.8-0.4,1.1-1c0.3-0.7,0-0.9-0.4-1c-0.5-0.1-1.3,0-1.7,0.3c-0.4,0.4-0.3,0.7-0.1,1
  C15.9,19.7,16.5,20.1,16.8,20.2z"/>
  <path class="st1" d="M16.3,21.5c0,0-0.2,0.4-0.5,0.6c-0.2,0.2-0.6,0.4-1,0.4c-0.6,0-1.1-0.2-1.5-0.4c-0.2-0.1-0.4-0.3-0.5-0.4
  c-0.2-0.2-0.4-0.3-0.4-0.3s0.7,4.1,2.6,4.7c1.8,0.6,2.1-0.7,2.2-1.1c0-0.3,0-2.1-0.8-3.2C16.5,21.4,16.4,21.6,16.3,21.5z"/>
  <g>
    <path
      d="M14.7,22.6C14.7,22.6,14.7,22.6,14.7,22.6c-1.3,0-2.3-1.4-2.3-1.4c0-0.1,0-0.2,0-0.2c0.1,0,0.2,0,0.2,0c0,0,1,1.3,2.1,1.3
    c0,0,0,0,0,0c0.6,0,1.1-0.3,1.6-1l0.1-0.2l0.1,0.2c0,0,0.4,0.8,1,0.8c0.5,0,1.1-0.4,1.6-1.3c0-0.1,0.1-0.1,0.2,0
    c0.1,0,0.1,0.1,0,0.2c-0.6,1-1.3,1.4-1.9,1.4c-0.6,0-0.9-0.5-1.1-0.8C15.9,22.3,15.3,22.6,14.7,22.6z"/>
  </g>
  <path
    class="st1"
    d="M26.2,18.9c0,0-2.5,2.2-5.1,5.2S15.9,29,15.9,29c-0.2-0.5-1.6-1.5-1.6-1.5s-3.1-2.1-5.2-3.8
  c-1.2-1-2.3-2.2-3.1-3c-0.3,0-1.1-0.1-2-0.1c4.7,7,12,8.8,12,8.8c0.9-0.1,3.3-1.9,5.1-3.3c1.8-1.4,4.8-4.5,5.9-5.9
  c0.6-0.7,0.9-1.4,1.1-2C27,18.6,26.2,18.9,26.2,18.9z"/>
</svg>
