<svg xmlns="http://www.w3.org/2000/svg" viewBox="0 0 100.5 18.1"><path d="M1.2 16.6c-.8-1-1.2-2.5-1.2-4.4V5.9C0 4 .4 2.5 1.2 1.5 2 .5 3.4 0 5.4 0c1.9 0 3.2.4 4 1.3.8.9 1.2 2.1 1.2 3.8v1.5h-4V4.8c0-.7-.1-1.2-.2-1.6-.1-.3-.5-.5-1-.5s-1 .2-1.1.6c-.2.4-.3.9-.3 1.6v8.3c0 .7.1 1.2.3 1.6.2.4.5.6 1.1.6.5 0 .9-.2 1-.6.2-.4.2-.9.2-1.6v-1.8h3.9v1.5c0 1.6-.4 2.9-1.2 3.9-.8.9-2.1 1.4-4 1.4-1.9-.1-3.3-.6-4.1-1.6zM15.2.2h4.5L23 17.8h-3.6l-.6-3.7h-2.6l-.6 3.7h-3.7L15.2.2zm3.2 11.6l-.9-6.9-.9 6.9h1.8zm7.4-8.7h-2.7V.2h9.3v2.9h-2.7v14.7h-4V3.1zM39.5.2h6.9V2H42v5.8h3.6v1.7H42v6.4h4.5v1.8h-7V.2zm9 0h1.7l5.1 11.7V.2h2.1v17.6h-1.6l-5.1-12v12h-2.1V.2zm11.3 0h6.9V2h-4.4v5.8h3.6v1.7h-3.6v6.4h4.5v1.8h-7V.2zm9 0h3.6c1.8 0 3.1.4 4 1.1s1.3 1.9 1.3 3.6c0 2.3-.7 3.6-2.2 4.1l2.5 8.8h-2.4l-2.3-8.3h-1.9v8.3h-2.5V.2zm3.4 7.6c1.1 0 1.8-.2 2.3-.6.5-.4.7-1.2.7-2.3 0-.7-.1-1.3-.2-1.7s-.4-.7-.9-.9c-.4-.2-1-.3-1.7-.3h-1.1v5.8h.9zm8.6 8.7c-.7-1-1.1-2.5-1.1-4.5V6.2c0-1.4.1-2.5.4-3.4.3-.9.8-1.5 1.5-2s1.7-.7 2.9-.7c1.6 0 2.8.4 3.6 1.2.7.8 1.1 2.1 1.1 3.9v.7h-2.3v-.6c0-.8-.1-1.5-.2-1.9-.1-.5-.3-.8-.7-1-.3-.3-.8-.4-1.4-.4-.7 0-1.2.2-1.5.5-.3.3-.6.7-.7 1.2-.1.5-.1 1.2-.1 2.1v6.5c0 1.3.2 2.3.5 2.9.3.6 1 .9 1.9.9.9 0 1.6-.3 1.9-1 .3-.6.5-1.7.5-3.1v-1.2h-2.3V9.1h4.5v8.7h-1.6l-.2-2c-.6 1.5-1.6 2.2-3.2 2.2s-2.8-.5-3.5-1.5zm13.5-4.9L90.4.2h2.3l2.7 8.5L98.1.2h2.3l-3.8 11.4v6.2h-2.4v-6.2z" fill="$almost-black"/></svg>