<svg xmlns="http://www.w3.org/2000/svg"><symbol id="icon-fb" viewBox="0 0 10 19"><path d="M7.1 19H2v-8.8H0V5.8h1.9c-.1-2 .2-3.4 1.1-4.4C3.8.5 5 .1 6.5 0H10v4.2H7.2c-.1.2-.2.8-.2 1.6h3v4.4H7.1V19zm-4-1h2.8V9.1h2.9V6.8H5.9v-.5c0-1.4 0-2.6.7-3.1l.1-.1h2.1V1H6.5c-1.2.1-2 .4-2.6 1-.8.8-1 2.3-.8 4.2l.1.6H1.1v2.3h2V18z"/></symbol><symbol id="icon-insta" viewBox="0 0 16 16"><path d="M11.8 1C13.6 1 15 2.4 15 4.2v7.7c0 1.7-1.4 3.1-3.1 3.1H4.2C2.4 15 1 13.6 1 11.8V4.2C1 2.4 2.4 1 4.2 1h7.6m0-1H4.2C1.9 0 0 1.9 0 4.2v7.7C0 14.1 1.9 16 4.2 16h7.7c2.3 0 4.2-1.9 4.2-4.2V4.2C16 1.9 14.1 0 11.8 0z"/><path class="st0" d="M8 4.9c1.7 0 3.1 1.4 3.1 3.1 0 1.7-1.4 3.1-3.1 3.1-1.7 0-3.1-1.4-3.1-3.1 0-1.7 1.4-3.1 3.1-3.1m0-1C5.7 3.9 3.9 5.7 3.9 8s1.8 4.1 4.1 4.1 4.1-1.8 4.1-4.1S10.3 3.9 8 3.9z"/><circle cx="12.3" cy="3.7" r=".9"/></symbol><symbol id="icon-mail" viewBox="0 0 17 13"><path d="M15.6 11.6H1.4V5.8H0V13h17V5.8h-1.4v5.8zM0 0v2.3l8.5 7.1L17 2.3V0H0zm15.6 1.6L8.5 7.5 1.4 1.6v-.2h14.2v.2z"/></symbol><symbol id="icon-phone" viewBox="0 0 20 20"><path d="M17.9 9.4H9.4v1.2h8.5l-2.1 2.1.9.9 3.1-3.1c.2-.2.2-.6 0-.9l-3.1-3.1-.9.9 2.1 2zm-9.8 10v-6.2c0-.3-.3-.6-.6-.6H3.1c0 .7.6 1.2 1.2 1.2h2.5v5H3.1c-1 .1-1.8-.7-1.9-1.7v-14c0-1 .8-1.8 1.7-1.8h3.9v5H4.4c-.7 0-1.2.6-1.2 1.2h4.4c.3 0 .6-.3.6-.6V.6C8.1.3 7.8 0 7.5 0H3.1C1.5-.1.1 1.2 0 2.9v13.9c-.1 1.7 1.2 3.1 2.9 3.1h4.6c.3.1.6-.2.6-.5z"/></symbol><symbol id="icon-vk" viewBox="0 0 22 12"><path d="M17.6 12c-.3 0-.9-.1-1.5-.5-.5-.3-.9-.7-1.3-1.2-.3-.3-.9-.9-1.1-.9-.2.1-.4.7-.3 1.2 0 .1 0 .6-.3.9-.3.3-.8.4-.9.4h-1.4c-.7 0-3.2-.2-5.4-2.3C2.5 7.1.2 2.2.1 2 0 1.6-.1 1.2.2.9c.3-.3.8-.4 1-.4h3.1c.1 0 .4.1.7.3.3.2.4.5.5.6 0 0 .5 1.1 1.1 2 1 1.5 1.4 1.9 1.5 2 .1-.4.2-1.4.1-2.3 0-.4-.1-.8-.2-1-.1-.1-.3-.2-.5-.2l-.6-.5c0-.5.5-.9.9-1.1.5-.2 1.3-.3 2.3-.3h.5c.9 0 1.2.1 1.6.1 1.2.3 1.2 1.3 1.1 2.5v1.6c0 .3 0 .8.1 1 .2-.1.6-.5 1.5-1.9.6-.9 1-1.9 1.1-2.1.1-.3.4-.7 1.2-.7h3.4c.7 0 1.2.2 1.3.7.2.5.1 1.3-1.7 3.5-.3.3-.5.6-.7.9-.5.4-.9 1-.9 1.1 0 .1.5.5.9.9 1.1.9 1.9 1.7 2.2 2.3.4.6.3 1 .2 1.3-.3.7-1.2.7-1.4.8h-2.9zm-3.9-3.7c.7 0 1.2.6 1.8 1.2.4.4.7.8 1.1 1 .5.3 1 .3 1 .3h2.9c.1 0 .3-.1.4-.1 0 0 0-.1-.1-.1-.3-.5-1-1.3-2-2.1-.9-.7-1.3-1.1-1.4-1.7 0-.6.4-1.1 1.2-2.1.2-.2.4-.5.7-.8 1.1-1.4 1.4-2 1.5-2.3h-3.9c0 .4-.5 1.5-1.1 2.4-1.4 2.1-2 2.4-2.5 2.4-.1 0-.3 0-.4-.1-.7-.4-.7-1.4-.7-2.1V2.6c.1-1.3 0-1.3-.3-1.4-.3-.1-.5-.1-1.4-.1H10c-.5 0-1 0-1.4.1l.2.2c.4.5.4 1.5.4 1.7.1 1.3 0 2.9-.7 3.3-.1 0-.2.1-.4.1-.6 0-1.3-.7-2.5-2.5C5 2.9 4.5 1.8 4.5 1.8s0-.1-.1-.1-.2-.1-.2-.1h-3c.4.9 2.5 5 4.8 7.2 2 1.9 4.3 2 4.7 2h1.4s.2 0 .2-.1v-.1c0-.2 0-2 1.2-2.3h.2z"/></symbol><symbol id="logo-htmlacademy"><path d="M13.62.017L13.472 0 0 1.412v24.661l13.472 8.017 13.43-7.99.042-.026V1.412L13.62.017zm11.399 12.11L13.495 5.334l-.001-.104-.087.05-.088-.056v.109L1.925 12.118V3.147l11.547-1.212 11.547 1.212v8.98zm-11.614-5.34L24.923 13.5l-4.479 2.64-7.093-4.221-.013 1.415 5.904 3.513-.86.507-5.031-2.992-.013 1.415 3.827 2.275-.782.523-3.032-1.787-.013 1.413 1.852 1.091-1.8 1.081-11.356-6.751 11.371-6.835zm-11.48 8.34l11.411 6.791.015 1.044-7.941-4.728-.015 1.416 7.979 4.796.017 1.076-7.972-4.741-.013 1.415 8.021 4.821.045.026 8.143-4.872v-1.268l-.011-.148v-3.761l3.415-2.036v10.02L13.472 31.85 1.925 24.979v-9.852z"/></symbol></svg>